HIERARCHY
ROOT RootJoint
{
    OFFSET   0.000000   0.000000   0.000000
    CHANNELS 6 Xposition Yposition Zposition Xrotation Yrotation Zrotation
    JOINT lHip
    {
        OFFSET   0.078795   0.000000   0.000000
        CHANNELS 3 Xrotation Yrotation Zrotation
        JOINT lKnee
        {
            OFFSET   0.000000  -0.427566   0.000000
            CHANNELS 3 Xrotation Yrotation Zrotation
            JOINT lAnkle
            {
                OFFSET   0.000000  -0.394685   0.000000
                CHANNELS 3 Xrotation Yrotation Zrotation
            }
        }
    }
    JOINT rHip
    {
        OFFSET  -0.078795   0.000000   0.000000
        CHANNELS 3 Xrotation Yrotation Zrotation
        JOINT rKnee
        {
            OFFSET   0.000000  -0.427566   0.000000
            CHANNELS 3 Xrotation Yrotation Zrotation
            JOINT rAnkle
            {
                OFFSET   0.000000  -0.394685   0.000000
                CHANNELS 3 Xrotation Yrotation Zrotation
            }
        }
    }
    JOINT pelvis_lowerback
    {
        OFFSET   0.000000   0.001000   0.000000
        CHANNELS 3 Xrotation Yrotation Zrotation
        JOINT lowerback_torso
        {
            OFFSET   0.000000   0.211086   0.000000
            CHANNELS 3 Xrotation Yrotation Zrotation
            JOINT torso_head
            {
                OFFSET   0.000000   0.158868   0.000000
                CHANNELS 3 Xrotation Yrotation Zrotation
            }
            JOINT lTorso_Clavicle
            {
                OFFSET   0.000000   0.158868   0.000000
                CHANNELS 3 Xrotation Yrotation Zrotation
                JOINT lShoulder
                {
                    OFFSET   0.189194  -0.000001   0.000000
                    CHANNELS 3 Xrotation Yrotation Zrotation
                    JOINT lElbow
                    {
                        OFFSET   0.272680  -0.000001   0.000000
                        CHANNELS 3 Xrotation Yrotation Zrotation
                    }
                }
            }
            JOINT rTorso_Clavicle
            {
                OFFSET   0.000000   0.158868   0.000000
                CHANNELS 3 Xrotation Yrotation Zrotation
                JOINT rShoulder
                {
                    OFFSET  -0.189194  -0.000001   0.000000
                    CHANNELS 3 Xrotation Yrotation Zrotation
                    JOINT rElbow
                    {
                        OFFSET  -0.272680  -0.000001   0.000000
                        CHANNELS 3 Xrotation Yrotation Zrotation
                    }
                }
            }
        }
    }
}
MOTION
Frames: 19
Frame Time:   0.016667
  0.248318   0.851421  -0.179441   2.463200 -83.441000   1.095200   2.867800   9.200100  10.867000   3.825200   0.000000   0.000000  -8.606900  16.234100 -33.792900   8.327900  -4.971600  -0.941600   3.518300   0.000000   0.000000 -20.828200  -4.808800   4.616100  -7.419700   0.657400   0.706800   1.805900  -0.718000   1.087100  20.215100  11.067800   2.238600  18.337300  -2.766500  23.712400  -3.501500   2.367200 -98.319500  -0.000100 -33.257400   0.000000  18.072200  -4.659800 -15.868000  -0.186100  -6.547600  95.942400  -0.000100  21.581800   0.000000
  0.246822   0.851068  -0.183388   3.992100 -83.505500   2.542400   0.905900   9.123800  11.470800   7.521300   0.000000   0.000000  -9.991400  16.267800 -33.877900   7.729000  -5.190300  -0.652800   4.601100   0.000000   0.000000 -21.504500  -4.413400   4.448700  -7.319700   0.561000   0.665500   1.727900  -0.814900   1.137600  20.189000  11.171300   2.201300  18.355600  -3.037500  23.525500  -3.879000   2.333800 -99.536600  -0.000100 -28.309800   0.000000  18.222400  -4.436300 -15.494300  -0.922900  -5.243900  97.374900  -0.000100  19.421000   0.000000
  0.245458   0.850610  -0.187358   5.528900 -83.425300   3.929100  -1.418000   8.657200  12.147800  11.922300   0.000000   0.000000 -11.304800  16.622700 -33.828600   7.618800  -4.077600  -0.209100   4.711200   0.000000   0.000000 -21.769000  -5.364900   4.039300  -7.188000   0.482500   0.673500   1.635600  -0.897600   1.194600  20.125600  11.172100   2.208900  18.366600  -3.424900  23.383300  -4.197300   2.127500 -100.465000  -0.000100 -23.853000   0.000000  18.269900  -4.198700 -15.254400  -1.466900  -4.084500  98.638900  -0.000100  17.748700   0.000000
  0.244279   0.850026  -0.191018   7.258600 -83.502300   5.442700  -3.907300   7.864100  12.762700  16.821600   0.000000   0.000000 -12.438900  17.679800 -33.343200   7.248600  -3.822900   0.242000   5.256000   0.000000   0.000000 -22.190900  -5.433900   3.601400  -7.008500   0.499800   0.817800   1.569900  -0.896400   1.293500  19.951500  11.460400   1.937300  18.245900  -3.737200  23.074500  -4.329600   1.723900 -101.064200  -0.000100 -20.279700   0.000000  18.155800  -3.874300 -15.322000  -1.807300  -3.183400  99.693400  -0.000100  16.567500   0.000000
  0.243368   0.849455  -0.194516   9.584900 -82.999400   7.486900  -6.826100   6.200000  13.236800  22.302200   0.000000   0.000000 -13.288700  19.262000 -32.516000   6.931200  -4.178800   0.823600   5.494700   0.000000   0.000000 -22.418500  -5.469500   3.434300  -6.737200   0.353300   0.937100   1.170800  -1.062000   1.352600  19.817500  11.362400   1.965300  18.316200  -4.014100  23.054700  -4.723700   0.778600 -101.650000  -0.000100 -17.033500   0.000000  18.426500  -3.812900 -15.271300  -2.372400  -2.465500 100.268700  -0.000100  15.885500   0.000000
  0.241739   0.849183  -0.197239   9.977900 -82.709100   7.819400  -9.428800   4.618200  13.281200  27.798300   0.000000   0.000000 -13.325200  21.162100 -32.046700   6.975600  -4.220300   1.154400   5.523000   0.000000   0.000000 -22.601300  -5.666600   2.710300  -6.520600   0.353000   1.034100   1.206100  -1.077400   1.310900  19.694300  11.493600   1.777700  18.410600  -4.287200  22.946400  -5.006900  -0.361600 -101.974900  -0.000100 -15.004300   0.000000  18.398600  -3.599000 -15.268700  -2.600800  -1.922200 100.474500  -0.000100  15.780700   0.000000
  0.240048   0.848980  -0.199337  10.682200 -82.490400   8.487200 -12.121800   3.303300  13.073000  33.219100   0.000000   0.000000 -12.966500  23.378700 -31.091400   6.991600  -4.397000   1.380600   5.536000   0.000000   0.000000 -22.743600  -5.665400   2.550700  -6.332500   0.436800   1.209000   1.286200  -1.014900   1.206500  19.527600  11.594800   1.587700  18.443100  -4.479900  22.882800  -5.225900  -1.772600 -102.221900  -0.000100 -13.668200   0.000000  18.587000  -3.388300 -15.390400  -3.074500  -1.168700 100.426100  -0.000100  15.957200   0.000000
  0.238051   0.848733  -0.200812  12.221100 -82.465000  10.040400 -14.922600   2.723900  12.679500  38.299200   0.000000   0.000000 -12.674000  25.512600 -28.961200   6.932200  -4.448400   1.482800   5.530800   0.000000   0.000000 -22.890300  -5.601300   2.314900  -6.284700   0.633600   1.465100   1.432400  -0.846300   0.978100  19.460600  11.759400   1.342200  18.629600  -4.447700  22.859800  -5.390400  -3.129800 -102.373400   0.000000 -13.255700   0.000000  18.846200  -3.213700 -15.585300  -3.840300   0.374800 100.058600  -0.000100  16.302500   0.000000
  0.235488   0.848464  -0.201790  14.435000 -82.662100  12.358700 -17.702900   2.931600  12.199200  42.789200   0.000000   0.000000 -13.045700  26.741900 -24.294300   6.866500  -4.388600   1.413100   5.480600   0.000000   0.000000 -23.065800  -5.416900   2.328200  -6.310900   0.949400   1.732200   1.607200  -0.562700   0.628500  19.406100  11.940800   1.090800  18.843300  -4.217600  22.794200  -5.231600  -4.094500 -102.378500  -0.000100 -13.688400   0.000000  19.034100  -2.997100 -15.790400  -4.736200   2.424200  99.380800  -0.000100  16.581100   0.000000
  0.232341   0.848317  -0.202489  17.466200 -82.933900  15.573100 -20.306600   3.508000  11.754700  46.401500   0.000000   0.000000 -13.341500  25.392000 -22.176200   6.818900  -4.456700   1.228100   5.327000   0.000000   0.000000 -23.217800  -5.027900   2.404500  -6.390600   1.337200   1.935900   1.753400  -0.203900   0.238900  19.244800  12.023400   0.893500  19.200000  -3.798400  22.600200  -4.903000  -4.729900 -102.163200  -0.000100 -14.830000   0.000000  19.043200  -2.641700 -15.895400  -5.308600   4.653100  98.388500  -0.000100  17.219400   0.000000
  0.228793   0.848248  -0.202832  21.608400 -83.047500  19.895500 -22.780700   4.095800  11.258700  48.934000   0.000000   0.000000 -13.668200  21.764400 -23.714400   6.726700  -4.995900   1.018100   5.044600   0.000000   0.000000 -23.212100  -4.274000   2.524500  -6.525800   1.716300   2.179800   1.746700   0.139700  -0.267300  19.229900  12.085900   0.694100  19.459600  -3.430400  22.380300  -4.230200  -5.237400 -101.773300  -0.000100 -16.363800   0.000000  18.868500  -2.252600 -15.809800  -5.512100   6.577700  97.137200  -0.000100  18.065000   0.000000
  0.224523   0.848203  -0.203086  24.345800 -83.003000  22.782500 -24.775200   4.618200  10.649700  50.153100   0.000000   0.000000 -13.748200  17.292100 -25.984900   7.009600  -5.378600   0.908100   4.368800   0.000000   0.000000 -23.060900  -3.848700   2.416300  -6.565100   2.022200   2.318600   1.727900   0.421900  -0.601600  19.066900  12.148900   0.481300  19.693300  -3.062100  22.124700  -3.407300  -5.579000 -101.312800  -0.000100 -18.123300   0.000000  18.673300  -1.961100 -15.711100  -5.683900   8.192700  95.744100  -0.000100  18.816800   0.000000
  0.220309   0.848027  -0.202966  27.754400 -82.916200  26.427200 -26.611600   5.210300   9.843600  50.226300   0.000000   0.000000 -13.364600  12.982900 -29.146600   7.123400  -6.116900   0.662300   3.832000   0.000000   0.000000 -23.019400  -3.145400   2.728400  -6.580700   2.316900   2.437400   1.635000   0.691400  -1.010800  18.970000  12.264500   0.233200  19.804900  -2.665900  21.864100  -2.302400  -5.673500 -100.808100  -0.000100 -20.271300   0.000000  18.655400  -1.659000 -15.837400  -6.206500   9.652900  94.528100  -0.000100  19.232100   0.000000
  0.215748   0.847740  -0.202458  31.588400 -82.714100  30.562500 -28.247000   5.842900   8.797200  49.107800   0.000000   0.000000 -13.111100   9.615000 -31.493800   7.155000  -6.740400   0.342500   3.293500   0.000000   0.000000 -22.973200  -2.493700   2.725000  -6.649800   2.635100   2.567800   1.458100   0.983500  -1.562800  18.847100  12.248100   0.046100  19.929500  -2.378600  21.738500  -1.084600  -5.677400 -100.325000  -0.000100 -22.496400   0.000000  18.707300  -1.374200 -16.007500  -6.818100  10.273100  93.426100  -0.000100  19.577700   0.000000
  0.210924   0.847270  -0.201739  35.587200 -82.580900  34.839300 -29.570800   6.476200   7.700600  46.986000   0.000000   0.000000 -12.986500   7.393900 -33.404800   7.182200  -7.094000   0.016200   2.798100   0.000000   0.000000 -23.011500  -2.072700   2.937500  -6.705500   3.011800   2.732500   1.360600   1.332500  -2.135800  18.626100  12.209100  -0.141500  20.097300  -1.992100  21.754100   0.068400  -5.315200 -99.938400  -0.000100 -24.812300   0.000000  18.504200  -0.922900 -16.232400  -7.278600  10.182300  92.390800  -0.000100  19.955900   0.000000
  0.205877   0.846607  -0.200944  39.152800 -82.422700  38.617400 -30.637500   7.017700   6.586200  44.063000   0.000000   0.000000 -12.731100   6.686900 -34.270800   7.236300  -7.271200  -0.247300   2.376300   0.000000   0.000000 -23.111600  -1.812000   3.026200  -6.690200   3.342600   2.872700   1.267300   1.638200  -2.623400  18.321600  12.184200  -0.320800  20.231200  -1.564700  21.820900   1.289200  -4.669500 -99.670900  -0.000100 -27.161600   0.000000  18.141200  -0.373200 -16.406300  -7.764600  10.059300  91.213700  -0.000100  20.434900   0.000000
  0.200645   0.845868  -0.199977  43.544900 -82.261400  43.219400 -31.548900   7.608600   5.481500  40.372100   0.000000   0.000000 -12.183900   7.138800 -33.997200   7.180100  -7.228500  -0.548600   2.005700   0.000000   0.000000 -23.192700  -1.653800   3.151500  -6.688200   3.712800   3.005300   1.148500   1.986300  -3.121700  18.070300  12.123100  -0.498600  20.362700  -1.051100  21.802000   2.402600  -4.072700 -99.363200  -0.000100 -29.425300   0.000000  17.764300   0.178300 -16.512400  -8.572800   9.703200  90.023200  -0.000100  20.722900   0.000000
  0.194661   0.844725  -0.198935  47.124100 -82.090000  46.864300 -32.182000   7.870800   4.519000  36.170500   0.000000   0.000000 -11.398800   8.142600 -33.709300   7.242800  -7.363200  -0.712000   1.734100   0.000000   0.000000 -23.454600  -1.355100   3.331400  -6.622500   4.052100   3.140300   0.940000   2.307300  -3.409600  17.768800  12.111000  -0.714300  20.487400  -0.468000  21.781400   3.459800  -3.336400 -99.165600  -0.000100 -31.415000   0.000000  17.358000   0.767700 -16.595100  -9.335900   9.355400  88.694900  -0.000100  21.262300   0.000000
  0.188173   0.843417  -0.197861  51.319200 -81.858800  51.151700 -32.700500   7.997600   3.607000  31.522200   0.000000   0.000000 -10.057800   9.319500 -33.207400   7.272500  -7.590900  -0.907300   1.364200   0.000000   0.000000 -23.647700  -0.943600   3.545600  -6.622500   4.396300   3.236900   0.669900   2.641200  -3.797000  17.641200  12.018100  -0.838100  20.616100   0.129200  21.620800   4.805200  -1.796700 -98.944200  -0.000100 -33.695100   0.000000  16.914500   1.442300 -16.491100 -10.130300   9.215600  87.247500  -0.000100  22.033300   0.000000
